<svg width="48" height="48" viewBox="0 0 48 48" fill="none" xmlns="http://www.w3.org/2000/svg">
<circle cx="24" cy="24" r="23" stroke="#73767A" stroke-width="2"/>
<path d="M30.3554 21.2386C30.3655 21.3807 30.3655 21.5229 30.3655 21.665C30.3655 26 27.066 30.995 21.0356 30.995C19.1777 30.995 17.4518 30.4569 16 29.5229C16.264 29.5533 16.5178 29.5635 16.7919 29.5635C18.3249 29.5635 19.736 29.0457 20.863 28.1625C19.4213 28.132 18.2132 27.1878 17.7969 25.8883C18 25.9188 18.203 25.9391 18.4163 25.9391C18.7107 25.9391 19.0051 25.8985 19.2792 25.8274C17.7767 25.5228 16.6497 24.2031 16.6497 22.6091V22.5685C17.0863 22.8122 17.5939 22.9645 18.1319 22.9848C17.2487 22.3959 16.67 21.3909 16.67 20.2538C16.67 19.6447 16.8324 19.0863 17.1167 18.599C18.7309 20.5888 21.1574 21.8883 23.8782 22.0305C23.8274 21.7868 23.7969 21.533 23.7969 21.2792C23.7969 19.4721 25.2589 18 27.0761 18C28.0203 18 28.8731 18.3959 29.4721 19.0355C30.2132 18.8934 30.9238 18.6193 31.5533 18.2437C31.3096 19.0051 30.7919 19.6447 30.1117 20.0508C30.7716 19.9797 31.4112 19.7969 32 19.5432C31.5534 20.1929 30.995 20.7715 30.3554 21.2386Z" fill="#283342"/>
</svg>
